<svg width="16" height="16" viewBox="0 0 16 16" fill="none" xmlns="http://www.w3.org/2000/svg">
<path d="M1.47989 1.47989C1.39534 1.56447 1.3439 1.67655 1.33491 1.79581C1.32592 1.91506 1.35997 2.03359 1.43089 2.12989L1.47989 2.18689L4.16989 4.87689C2.8585 5.79581 1.92228 7.15665 1.53289 8.70989C1.50422 8.83731 1.52654 8.97088 1.59508 9.08206C1.66362 9.19323 1.77294 9.27317 1.89966 9.30479C2.02638 9.3364 2.16044 9.31718 2.27317 9.25123C2.3859 9.18528 2.46835 9.07784 2.50289 8.95189C2.84866 7.57333 3.70041 6.37531 4.88889 5.59589L6.09589 6.80289C5.61172 7.3062 5.34428 7.97934 5.35105 8.67769C5.35781 9.37605 5.63823 10.0439 6.13207 10.5377C6.6259 11.0315 7.29374 11.312 7.99209 11.3187C8.69044 11.3255 9.36359 11.0581 9.86689 10.5739L13.8129 14.5199C13.9021 14.6087 14.0216 14.6607 14.1474 14.6653C14.2733 14.6699 14.3962 14.6268 14.4917 14.5447C14.5872 14.4626 14.6482 14.3475 14.6625 14.2224C14.6768 14.0973 14.6434 13.9714 14.5689 13.8699L14.5199 13.8129L10.4449 9.73689V9.73589L9.64489 8.93689L7.73189 7.02389L5.81289 5.10489L5.05789 4.34989L2.18689 1.47989C2.09313 1.38615 1.96598 1.3335 1.83339 1.3335C1.70081 1.3335 1.57366 1.38615 1.47989 1.47989ZM6.80289 7.50989L9.15889 9.86689C8.8442 10.169 8.42364 10.3356 7.98746 10.3312C7.55128 10.3267 7.13422 10.1515 6.82578 9.84301C6.51733 9.53456 6.34208 9.11751 6.33761 8.68132C6.33315 8.24514 6.50083 7.82458 6.80289 7.50989ZM7.99989 3.66689C7.33289 3.66689 6.68589 3.76489 6.07389 3.94989L6.89889 4.77389C8.32531 4.49134 9.80575 4.76773 11.0341 5.54589C12.2625 6.32406 13.1449 7.5445 13.4989 8.95489C13.5334 9.08084 13.6159 9.18828 13.7286 9.25423C13.8413 9.32018 13.9754 9.3394 14.1021 9.30779C14.2288 9.27617 14.3382 9.19623 14.4067 9.08506C14.4752 8.97389 14.4976 8.84031 14.4689 8.71289C14.1072 7.27118 13.2741 5.99164 12.1021 5.07744C10.9301 4.16324 9.48629 3.66678 7.99989 3.66689ZM8.12989 6.00689L10.6639 8.53989C10.6314 7.87832 10.354 7.25248 9.88566 6.78412C9.4173 6.31576 8.79146 6.03936 8.12989 6.00689Z" fill="black"/>
</svg>
