<svg width="16" height="16" viewBox="0 0 16 16" fill="none" xmlns="http://www.w3.org/2000/svg">
<path d="M8.0002 6.00299C8.35044 6.00299 8.69724 6.07198 9.02082 6.20601C9.34439 6.34003 9.6384 6.53648 9.88605 6.78414C10.1337 7.03179 10.3302 7.3258 10.4642 7.64938C10.5982 7.97295 10.6672 8.31976 10.6672 8.66999C10.6672 9.02023 10.5982 9.36703 10.4642 9.69061C10.3302 10.0142 10.1337 10.3082 9.88605 10.5558C9.6384 10.8035 9.34439 10.9999 9.02082 11.134C8.69724 11.268 8.35044 11.337 8.0002 11.337C7.29287 11.337 6.61451 11.056 6.11435 10.5558C5.61419 10.0557 5.3332 9.37732 5.3332 8.66999C5.3332 7.96266 5.61419 7.2843 6.11435 6.78414C6.61451 6.28398 7.29287 6.00299 8.0002 6.00299ZM8.0002 7.00299C7.55808 7.00299 7.13408 7.17862 6.82145 7.49125C6.50883 7.80387 6.3332 8.22788 6.3332 8.66999C6.3332 9.11211 6.50883 9.53612 6.82145 9.84874C7.13408 10.1614 7.55808 10.337 8.0002 10.337C8.44232 10.337 8.86632 10.1614 9.17895 9.84874C9.49157 9.53612 9.6672 9.11211 9.6672 8.66999C9.6672 8.22788 9.49157 7.80387 9.17895 7.49125C8.86632 7.17862 8.44232 7.00299 8.0002 7.00299ZM8.0002 3.66699C11.0762 3.66699 13.7302 5.76699 14.4672 8.70999C14.4848 8.77426 14.4894 8.84139 14.4807 8.90746C14.472 8.97352 14.4502 9.03718 14.4166 9.0947C14.3829 9.15222 14.3381 9.20243 14.2848 9.24238C14.2315 9.28233 14.1707 9.31122 14.106 9.32735C14.0414 9.34348 13.9742 9.34653 13.9083 9.33631C13.8425 9.32609 13.7793 9.30281 13.7226 9.26784C13.6659 9.23287 13.6167 9.18691 13.578 9.13267C13.5393 9.07843 13.5118 9.017 13.4972 8.95199C13.1878 7.72827 12.4789 6.64278 11.4828 5.8675C10.4867 5.09222 9.26038 4.67148 7.99814 4.67194C6.7359 4.6724 5.5099 5.09403 4.51438 5.87003C3.51886 6.64604 2.81074 7.73204 2.5022 8.95599C2.46921 9.08379 2.38703 9.19337 2.27357 9.26081C2.16012 9.32826 2.0246 9.34812 1.89656 9.31604C1.76853 9.28397 1.65837 9.20257 1.59012 9.0896C1.52186 8.97663 1.50104 8.84125 1.5322 8.71299C1.8939 7.27145 2.72676 5.99203 3.89856 5.07785C5.07037 4.16366 6.51397 3.6671 8.0002 3.66699Z" fill="black"/>
</svg>
